<?xml version="1.0" standalone="no"?>
<!DOCTYPE svg PUBLIC "-//W3C//DTD SVG 20010904//EN"
 "http://www.w3.org/TR/2001/REC-SVG-20010904/DTD/svg10.dtd">
<svg version="1.0" xmlns="http://www.w3.org/2000/svg"
 width="512.000000pt" height="512.000000pt" viewBox="0 0 512.000000 512.000000"
 preserveAspectRatio="xMidYMid meet">

<g transform="translate(0.000000,512.000000) scale(0.100000,-0.100000)"
fill="#000000" stroke="none">
<path d="M2663 4076 c-184 -88 -229 -315 -92 -470 36 -41 115 -81 181 -91 95
-14 219 44 276 130 78 117 64 268 -34 369 -56 57 -107 79 -199 83 -69 4 -87 1
-132 -21z"/>
<path d="M2470 3431 c-32 -7 -698 -284 -762 -317 l-28 -15 0 -345 0 -345 148
3 147 3 5 249 5 249 124 49 c68 27 125 47 126 46 2 -2 -28 -156 -65 -343 -37
-187 -89 -451 -116 -587 -43 -216 -51 -248 -67 -248 -10 0 -172 31 -360 70
-187 38 -342 69 -343 67 -6 -6 -59 -289 -55 -292 10 -5 1023 -207 1026 -203 1
2 33 138 70 303 37 165 71 308 74 318 6 15 31 -5 140 -110 74 -70 142 -134
152 -141 18 -12 19 -36 19 -458 l0 -444 150 0 150 0 0 549 0 549 -156 150
-157 149 43 214 c23 118 43 215 44 216 1 1 29 -23 62 -54 124 -118 250 -192
417 -248 103 -34 289 -64 320 -52 16 6 17 22 15 149 l-3 143 -77 7 c-136 12
-251 56 -374 144 -81 57 -122 108 -239 294 -146 234 -200 281 -329 286 -39 2
-87 -1 -106 -5z"/>
<path d="M1728 533 c468 -2 1236 -2 1705 0 468 1 85 2 -853 2 -938 0 -1321 -1
-852 -2z"/>
</g>
</svg>
